<svg xmlns="http://www.w3.org/2000/svg" width="280" height="280" viewBox="0 0 280 280">
    <g>
      <path fill="#dfecd5" d="M236,140a96,96,0,0,1-96,96V202a62,62,0,0,0,0-124V44A96,96,0,0,1,236,140Z" />
      <path fill="#3c9566" d="M78,140a62,62,0,0,0,62,62v34a96,96,0,0,1,0-192V78A62,62,0,0,0,78,140Z" />
      <path fill="#dfecd5" d="M115,140a25,25,0,0,0,25,25v37a62,62,0,0,1,0-124v37A25,25,0,0,0,115,140Z" />
      <path fill="#3c9566" d="M202,140a62,62,0,0,1-62,62V165a25,25,0,0,1,0-50V78A62,62,0,0,1,202,140Z" />
      <circle fill="#fff" cx="140" cy="140" r="25" />
    </g>
</svg>
